<?xml version="1.0" standalone="no"?>
<!DOCTYPE svg PUBLIC "-//W3C//DTD SVG 1.1//EN" "http://www.w3.org/Graphics/SVG/1.1/DTD/svg11.dtd" >
<!--
2013-9-30: Created.
-->
<svg>
<metadata>
Created by iconfont
</metadata>
<defs>

<font id="iconfont" horiz-adv-x="1024" >
  <font-face
    font-family="iconfont"
    font-weight="500"
    font-stretch="normal"
    units-per-em="1024"
    ascent="896"
    descent="-128"
  />
    <missing-glyph />
    
    <glyph glyph-name="youhuiquan" unicode="&#58886;" d="M957.478446 178.397455M957.478446 374.53046c-8.477069 0-15.349593 6.872524-15.349593 15.349593l0 61.406558c0 8.477069 6.872524 15.349593 15.349593 15.349593s15.349593-6.872524 15.349593-15.349593l0-61.406558C972.828039 381.402985 965.955514 374.53046 957.478446 374.53046zM957.478446 463.899884M957.478446 464.31023M65.155441 588.74324c-8.477069 0-15.349593 6.872524-15.349593 15.349593l0 47.072085c0 8.477069 6.872524 15.349593 15.349593 15.349593l892.323005 0c8.477069 0 15.349593-6.872524 15.349593-15.349593l0-45.133943c0-8.477069-6.872524-15.349593-15.349593-15.349593s-15.349593 6.872524-15.349593 15.349593l0 29.78435-861.623819 0 0-31.722492C80.505034 595.615765 73.632509 588.74324 65.155441 588.74324zM957.478446-43.659991l-892.323005 0c-8.477069 0-15.349593 6.872524-15.349593 15.349593s6.872524 15.349593 15.349593 15.349593l876.973412 0 0 32.414247c0 8.477069 6.872524 15.349593 15.349593 15.349593s15.349593-6.872524 15.349593-15.349593l0-47.76384C972.828039-36.787466 965.955514-43.659991 957.478446-43.659991zM957.491749 440.803863c-1.064238 0-2.143826 0.110517-3.225461 0.342808-19.947308 4.267187-38.08234 15.35471-51.062979 31.220049-13.170974 16.098653-20.425192 36.437887-20.425192 57.270355 0 20.832468 7.254218 41.172725 20.425192 57.271378 12.981662 15.865339 31.115672 26.953885 51.062979 31.220049 8.293897 1.77646 16.447601-3.508917 18.22099-11.79872 1.77339-8.289804-3.50994-16.447601-11.79872-18.22099-27.355021-5.852288-47.211255-30.443359-47.211255-58.472739 0-28.028357 19.85521-52.619428 47.211255-58.471716 8.290827-1.77339 13.573133-9.931187 11.79872-18.22099C970.944132 445.738245 964.575074 440.803863 957.491749 440.803863zM957.491749 222.426227c-1.063215 0-2.143826 0.110517-3.225461 0.342808-19.947308 4.267187-38.08234 15.35471-51.062979 31.220049-13.170974 16.098653-20.425192 36.437887-20.425192 57.271378s7.254218 41.171702 20.425192 57.270355c12.981662 15.865339 31.115672 26.952862 51.062979 31.220049 8.293897 1.777483 16.447601-3.50994 18.22099-11.79872 1.77339-8.289804-3.508917-16.447601-11.79872-18.22099-27.355021-5.852288-47.211255-30.443359-47.211255-58.471716 0-28.02938 19.85521-52.619428 47.211255-58.471716 8.289804-1.772366 13.573133-9.930163 11.79872-18.22099C970.944132 227.361633 964.576097 222.426227 957.491749 222.426227zM957.491749 4.048591c-1.063215 0-2.143826 0.110517-3.225461 0.342808-19.947308 4.267187-38.08234 15.35471-51.062979 31.221072-13.170974 16.098653-20.425192 36.437887-20.425192 57.271378s7.253194 41.170678 20.424168 57.270355c12.980639 15.865339 31.114648 26.953885 51.061956 31.221072 8.292873 1.77646 16.446577-3.50994 18.22099-11.79872s-3.508917-16.446577-11.79872-18.22099c-27.353998-5.852288-47.209208-30.443359-47.209208-58.471716 0-28.02938 19.85521-52.620451 47.211255-58.472739 8.289804-1.772366 13.573133-9.931187 11.79872-18.22099C970.944132 8.982974 964.576097 4.048591 957.491749 4.048591zM957.478446 151.791493c-8.477069 0-15.349593 6.872524-15.349593 15.349593l0 69.593008c0 8.477069 6.872524 15.349593 15.349593 15.349593s15.349593-6.872524 15.349593-15.349593l0-69.593008C972.828039 158.664018 965.955514 151.791493 957.478446 151.791493zM65.317123-43.659991c-8.477069 0-15.349593 6.872524-15.349593 15.349593l0 42.97886c0 8.477069 6.872524 15.349593 15.349593 15.349593s15.349593-6.872524 15.349593-15.349593l0-42.97886C80.666716-36.787466 73.794192-43.659991 65.317123-43.659991zM65.317123 599.66601M65.317123 34.26273M487.498468 112.629565c3.149736 18.379603 4.200672 35.184337 4.200672 58.81657L491.69914 222.910251l-77.196173 0c-23.63121 0-36.760229-1.049912-54.614875-4.200672l0 39.386032c17.854647-3.151783 30.983665-4.200672 54.614875-4.200672l77.196173 0 0 25.207102-20.481474 30.982642-56.715723 0c-23.63121 0-36.760229-1.049912-54.614875-4.200672l0 39.386032c17.854647-3.15076 30.983665-4.200672 54.614875-4.200672l36.760229 0-81.396845 124.984572c-15.228843 23.63121-23.63121 35.709293-31.508621 45.687552l56.190767 0c4.200672-12.078083 8.927323-22.056342 25.732058-48.313356l91.90006-148.090826 91.375104 148.090826c15.228843 24.682146 21.530362 36.235272 25.207102 48.313356l56.715723 0c-7.352455-8.927323-18.380626-24.156166-32.558533-45.687552l-80.871889-124.984572 36.760229 0c23.632233 0 37.285185 1.049912 55.140855 4.200672l0-39.386032c-17.85567 3.15076-32.034601 4.200672-55.140855 4.200672l-56.189743 0-21.005406-31.508621 0-24.681122 77.196173 0c23.106254 0 36.760229 1.048889 54.614875 4.200672l0-39.386032c-17.854647 3.15076-32.034601 4.200672-54.614875 4.200672L531.611152 222.910251l0-51.464115c0-26.257014 1.048889-39.910988 4.200672-58.81657L487.498468 112.629565zM65.728492 177.757888M65.728492 371.845305c-8.477069 0-15.349593 6.872524-15.349593 15.349593l0 63.453171c0 8.477069 6.872524 15.349593 15.349593 15.349593s15.349593-6.872524 15.349593-15.349593l0-63.453171C81.078085 378.717829 74.206584 371.845305 65.728492 371.845305zM65.728492 463.261341M65.728492 463.671687M65.716212 440.16532c-7.085372 0-13.453407 4.934382-14.994506 12.141528-1.77339 8.289804 3.508917 16.447601 11.79872 18.22099 27.356045 5.852288 47.211255 30.443359 47.211255 58.471716 0 28.02938-19.85521 52.620451-47.211255 58.472739-8.289804 1.772366-13.57211 9.931187-11.79872 18.22099 1.77339 8.289804 9.931187 13.574157 18.22099 11.79872 19.947308-4.266164 38.08234-15.35471 51.062979-31.220049 13.171997-16.098653 20.425192-36.43891 20.425192-57.271378 0-20.832468-7.254218-41.171702-20.425192-57.270355-12.980639-15.865339-31.115672-26.952862-51.062979-31.220049C67.859016 440.275837 66.779428 440.16532 65.716212 440.16532zM65.716212 221.786661c-7.085372 0-13.453407 4.933359-14.994506 12.141528-1.77339 8.290827 3.508917 16.447601 11.79872 18.22099 27.356045 5.852288 47.211255 30.443359 47.211255 58.472739 0 28.028357-19.85521 52.619428-47.211255 58.471716-8.289804 1.77339-13.57211 9.931187-11.79872 18.22099 1.772366 8.290827 9.931187 13.576203 18.22099 11.79872 19.947308-4.267187 38.08234-15.35471 51.062979-31.220049 13.171997-16.098653 20.425192-36.437887 20.425192-57.270355 0-20.832468-7.254218-41.171702-20.425192-57.271378-12.980639-15.866363-31.115672-26.953885-51.062979-31.221072C67.860039 221.898201 66.779428 221.786661 65.716212 221.786661zM65.716212 3.409025c-7.085372 0-13.453407 4.933359-14.994506 12.141528-1.77339 8.289804 3.508917 16.447601 11.79872 18.22099 27.356045 5.852288 47.211255 30.443359 47.211255 58.472739 0 28.028357-19.854187 52.619428-47.210231 58.472739-8.289804 1.77339-13.57211 9.931187-11.797697 18.222013s9.931187 13.57211 18.222013 11.797697c19.947308-4.26821 38.081317-15.355733 51.060933-31.222095 13.170974-16.09763 20.424168-36.436864 20.424168-57.270355s-7.254218-41.171702-20.425192-57.271378c-12.980639-15.866363-31.115672-26.953885-51.062979-31.221072C67.860039 3.519542 66.779428 3.409025 65.716212 3.409025zM65.728492 151.151927c-8.477069 0-15.349593 6.872524-15.349593 15.349593l0 69.593008c0 8.477069 6.872524 15.349593 15.349593 15.349593s15.349593-6.872524 15.349593-15.349593l0-69.593008C81.078085 158.024451 74.206584 151.151927 65.728492 151.151927z"  horiz-adv-x="1024" />

    
    <glyph glyph-name="qianjin-copy" unicode="&#58885;" d="M396.504 344.461l384.753-379.451c21.336-21.017 21.592-55.384 0.639-76.784v0c-21.017-21.4-55.64-21.657-76.976-0.639l-463.581 457.129c-21.592 21.272-21.592 56.087 0 77.423l464.603 458.215c21.017 20.697 54.682 20.889 75.89 0.383l0.319-0.319c22.039-21.273 22.23-56.279 0.383-77.807l-386.094-380.792c-21.528-21.208-21.528-56.087 0.064-77.359z"  horiz-adv-x="1024" />

    
    <glyph glyph-name="xiaoren" unicode="&#58939;" d="M696.498051 359.083042c61.908664 54.848006 101.407415 138.1433 101.407415 231.466773 0 165.464975-124.226641 299.412811-277.309883 299.412811C367.410013 889.962626 243.183372 756.01479 243.183372 590.652143c0-82.988308 31.312481-158.19966 81.965024-212.331368C331.390427 372.283402 507.804537 209.069651 696.498051 359.083042M882.531028 152.072749 731.801339 289.397422c-56.587589-46.354752-216.936145-144.180674-438.579394 3.479165C226.401519 241.507745 48.145498 94.052563 67.894874-5.410613c0 0 3.479165-103.760967 192.070351-108.775057 0 0 561.987409-41.545318 655.413211 55.25732C915.276107-58.92835 1017.39982 6.766463 882.531028 152.072749"  horiz-adv-x="1024" />

    
    <glyph glyph-name="wodezuji" unicode="&#58890;" d="M342.656-57.024c-15.936 0-32.512 2.24-49.472 6.656-39.104 10.176-67.584 33.92-84.928 70.656-12.352 26.368-16.448 55.936-12.224 88.064 3.392 25.6 13.12 45.056 23.168 62.208 7.936 13.696 20.352 28.16 36.864 43.008 4.608 4.032 9.408 8.256 14.528 12.416 15.04 12.8 30.656 25.984 40.768 41.024 20.736 31.104 25.856 63.04 15.872 97.6-2.432 8.32-8 18.112-13.44 27.648C308.8 400.832 303.616 409.792 300.608 418.176 276.48 483.84 281.536 544.704 315.136 594.112c31.616 46.464 65.856 70.528 111.168 77.952 36.544 6.016 74.624 1.664 113.152-13.184 48.384-18.688 86.784-42.24 117.312-72.128 56.384-55.424 78.656-124.032 65.984-204.032-1.152-6.912-2.624-13.888-4.096-20.736l-1.856-9.344C704 306.688 683.904 263.424 655.104 219.84c-47.232-71.424-95.68-132.928-148.096-188.096-22.72-23.936-45.376-43.328-69.12-59.072C408.448-47.04 376.384-57.024 342.656-57.024zM458.752 658.112c-10.048 0-20.032-0.768-29.824-2.432C387.968 648.96 358.08 627.776 328.896 584.832 290.432 528.128 300.736 466.048 316.16 423.872c2.624-7.04 7.104-14.976 11.968-23.488 5.888-10.304 12.032-20.928 14.976-31.168 11.392-39.04 5.312-76.48-18.048-111.488-11.328-16.896-27.84-30.848-43.84-44.352-4.864-4.096-9.6-8.128-14.016-12.096-15.232-13.76-26.56-26.816-33.664-39.04-10.688-18.048-18.24-34.496-21.056-56-3.968-29.248-0.384-55.04 10.816-78.784 15.04-32 39.936-52.672 74.048-61.568 48.064-12.608 91.904-5.632 131.392 20.672 22.656 15.104 44.288 33.6 66.304 56.704 51.712 54.464 99.584 115.264 146.176 185.792 27.904 42.112 47.232 83.968 59.264 127.616l1.856 8.896c1.344 6.656 2.88 13.248 3.904 19.968 11.904 74.368-8.768 138.112-61.12 189.504-28.864 28.224-65.344 50.688-111.552 68.48C507.776 653.312 483.392 658.112 458.752 658.112zM333.76 639.744c-17.792 0-35.136 6.08-50.24 17.664C237.312 692.864 226.112 765.632 259.52 813.312c15.872 22.592 39.744 35.52 65.408 35.52 20.416 0 40.576-8.32 56.768-23.488 23.104-21.568 35.456-49.664 36.48-83.328-0.064-25.472-5.504-45.696-17.216-64C385.344 653.696 360.896 639.744 333.76 639.744zM324.928 832.192c-20.16 0-39.168-10.368-51.904-28.48C245.12 763.776 254.784 700.288 293.632 670.528c12.16-9.344 25.984-14.208 40.128-14.208 21.312 0 40.768 11.2 53.184 30.656C396.864 702.528 401.536 719.936 401.6 741.76 400.704 770.624 390.208 794.688 370.432 813.184 357.312 825.472 341.12 832.192 324.928 832.192zM480.256 669.44c-22.08 0-41.92 12.416-52.928 33.28C405.44 744 423.616 803.712 464.768 825.536c10.112 5.376 20.544 8.064 31.04 8.064 24.384 0 45.824-15.168 55.936-39.552 6.912-16.448 8.128-34.176 3.968-55.744C548.928 710.208 533.056 688.96 509.44 676.8 500.032 671.936 490.176 669.44 480.256 669.44zM495.808 817.088c-7.808 0-15.552-2.048-23.232-6.144C439.616 793.344 424.448 743.616 442.048 710.592c11.968-22.656 37.056-30.784 59.84-19.008 19.392 10.048 32 26.944 37.504 50.432C542.912 760 542.08 774.272 536.448 787.776 528.832 806.144 513.664 817.088 495.808 817.088zM601.472 641.472c-20.864 0-38.72 12.032-47.936 32.192C536.64 710.848 555.648 761.92 592.768 778.88c8.128 3.648 16.384 5.504 24.512 5.504 22.976 0 42.24-14.528 50.24-37.824 5.12-14.72 5.248-30.272 0.384-48.768-7.232-24.384-22.4-41.984-43.52-51.328C616.896 643.2 609.152 641.472 601.472 641.472zM617.28 767.872c-5.888 0-11.776-1.344-17.472-4.032-28.864-13.184-44.16-54.4-31.104-83.2C577.472 661.184 598.272 653.12 617.6 661.632c16.896 7.488 28.352 21.12 34.368 40.64 3.904 15.104 3.904 27.2-0.256 38.848C646.016 757.888 633.152 767.872 617.28 767.872zM699.392 572.736c-23.36 0-42.752 15.168-49.6 38.72-11.008 38.464 14.72 85.312 53.12 96.384 5.632 1.6 11.264 2.432 16.64 2.432 25.728 0 46.272-17.92 51.264-44.544 2.88-15.04 0.896-30.08-6.528-47.424-10.752-22.464-27.776-37.44-49.728-43.52C709.504 573.376 704.512 572.736 699.392 572.736zM719.488 693.696c-3.904 0-7.872-0.64-12.032-1.792-29.632-8.64-50.368-46.208-41.728-75.904 5.76-20.096 24.384-30.656 44.352-25.216 17.344 4.8 30.4 16.384 38.848 34.368 6.016 13.952 7.744 25.6 5.504 37.504C750.848 681.536 737.28 693.696 719.488 693.696zM758.848 475.712c-24.64 0-44.032 16.832-48 41.92-6.144 36.928 22.976 77.568 60.032 83.712 31.616 5.248 56.512-15.616 58.624-46.784 0.896-14.272-2.624-28.096-11.392-43.264-12.352-19.776-29.888-31.808-50.88-34.944C764.352 475.904 761.6 475.712 758.848 475.712zM780.224 585.536c-2.24 0-4.48-0.256-6.72-0.64-28.032-4.544-50.88-36.608-46.4-64.576 3.264-18.944 18.24-30.592 37.504-27.584 16.384 2.496 29.632 11.648 39.232 27.072 6.848 12.096 9.728 22.528 9.024 33.6C811.648 572.608 798.528 585.536 780.224 585.536z"  horiz-adv-x="1024" />

    
    <glyph glyph-name="weixin" unicode="&#58925;" d="M577.155072 386.545664c-11.626496 0-23.257088-10.797056-23.257088-24.086528 0-10.799104 11.624448-21.59616 23.257088-21.59616 17.44896 0 29.906944 10.799104 29.906944 21.59616 0 13.289472-12.457984 24.086528-29.906944 24.086528z m-76.425216 112.150528c18.274304 0 29.906944 11.626496 29.906944 29.075456 0 18.276352-11.630592 29.073408-29.906944 29.073408-17.444864 0-34.060288-10.799104-34.060288-29.073408 0-17.451008 16.615424-29.075456 34.060288-29.075456zM509.868032 896C228.274176 896 0 667.725824 0 386.131968c0-281.591808 228.274176-509.865984 509.868032-509.865984 281.591808 0 509.865984 228.274176 509.865984 509.865984C1019.734016 667.725824 791.461888 896 509.868032 896z m-96.360448-639.041536c-30.738432 0-53.168128 4.980736-82.243584 13.29152l-83.902464-42.371072 24.09472 71.446528c-58.9824 41.531392-93.874176 93.868032-93.874176 157.833216 0 112.97792 106.33216 199.3728 235.925504 199.3728 114.6368 0 216.815616-68.120576 236.752896-164.487168-8.306688 1.665024-15.783936 2.492416-22.429696 2.492416-112.97792 0-200.200192-84.729856-200.200192-186.908672 0-17.442816 2.492416-33.224704 6.64576-49.842176-6.64576-0.827392-14.125056-0.827392-20.768768-0.827392z m346.40896-81.410048l16.611328-59.815936-63.133696 35.719168c-24.088576-4.980736-47.34976-12.457984-71.440384-12.457984-111.316992 0-199.3728 76.423168-199.3728 171.124736s88.055808 171.126784 199.3728 171.126784c105.498624 0 200.200192-76.425216 200.200192-171.126784 0-53.159936-35.719168-100.509696-82.23744-134.569984z m-423.667712 381.29664c-17.444864 0-35.719168-10.799104-35.719168-29.073408 0-17.44896 18.274304-29.0816 35.719168-29.0816 16.615424 0 29.906944 11.630592 29.906944 29.0816 0 18.276352-13.289472 29.073408-29.906944 29.073408z m371.331072-170.299392c-12.464128 0-23.261184-10.797056-23.261184-24.086528 0-10.799104 10.799104-21.59616 23.261184-21.59616 16.611328 0 29.073408 10.799104 29.073408 21.59616 0 13.289472-12.46208 24.086528-29.073408 24.086528z"  horiz-adv-x="1024" />

    
    <glyph glyph-name="shoucang" unicode="&#59005;" d="M669.37 654.374c80.204 0 148.921-59.161 159.833-137.619 7.603-54.509-7.565-100.429-46.297-140.41-81.504-84.108-227.693-230.591-256.173-259.103-2.925-2.932-6.26-3.546-8.531-3.546-2.279 0-5.607 0.614-8.519 3.546-64.096 64.345-180.454 181.344-247.731 249.152-30.22 30.444-48 63.142-54.349 99.916-11.366 65.818 19.879 132.525 77.754 165.99 24.864 14.388 52.832 21.991 80.89 21.991 40.902 0 80.313-15.897 110.956-44.774 13.517-12.743 26.944-16.615 38.279-16.615 14.572 0 25.683 6.407 29.03 8.576 7.168 4.672 14.08 9.485 20.915 14.24 12.32 8.55 23.917 16.634 34.931 22.176 21.677 10.932 44.91 16.48 69.012 16.48m0 53.14c-31.053 0-62.637-6.99-92.621-22.1-21.03-10.604-39.898-25.612-60.915-39.334 0 0-1.37 1.069-2.618 2.246-41.376 38.99-93.875 59.11-146.976 59.11-36.576 0-73.44-9.548-107.149-29.042-77.446-44.794-118.662-133.088-103.443-221.19 8.742-50.625 33.389-92.468 69.011-128.398 67.303-67.808 183.687-184.844 247.789-249.222 12.66-12.691 29.197-19.027 45.747-19.027 16.538 0 33.05 6.31 45.69 18.97 65.824 65.887 186.899 187.596 256.742 259.654 49.274 50.854 70.74 113.645 60.82 184.94-15.188 109.07-110.785 183.393-212.077 183.393z"  horiz-adv-x="1024" />

    
    <glyph glyph-name="cust" unicode="&#58887;" d="M381.354 308.33c-32.091 0-58.044-25.977-58.044-57.983 0-32.092 25.952-58.071 58.044-58.071 24.571 0 45.346 15.401 53.725 36.942l-42.145 21.131 42.145 21.013c-8.378 21.66-29.155 36.969-53.725 36.969v0zM651.956 192.037c24.51 0 45.349 15.369 53.722 36.998l-42.203 21.043 42.203 21.076c-8.373 21.597-29.212 36.943-53.722 36.943-32.094 0-58.046-25.982-58.046-58.019 0-32.062 25.949-58.042 58.046-58.042v0zM914.501 328.37c0.221 9.124 0.246 18.399 0.061 27.703 2.482 125.822-34.965 231.884-108.305 306.747-34.983 35.697-77.522 63.101-126.274 81.764-7.57 67.964-81.379 121.476-171.035 121.476-89.655 0-163.465-53.511-171.035-121.476-48.75-18.662-91.286-46.068-126.265-81.765-73.361-74.863-110.816-180.72-108.324-306.16-0.217-11.852-0.143-22.981 0.224-33.861-19.009-19.13-33.901-48.032-23.018-88.58 8.086-30.131 30.379-52.707 57.734-62.588 13.9-8.576 30.228-13.566 47.698-13.679 34.873-152.481 161.477-256.009 326.807-256.009 165.027 0 291.658 103.781 326.338 256.357 1.069-0.234 2.174-0.365 3.313-0.365 21.78 0 41.81 7.603 57.611 20.272 20.66 11.718 36.814 31.33 43.437 56.011 11.997 44.706-7.331 75.252-28.97 94.155zM508.949 835.085c66.785 0 122.847-33.908 137.167-79.232-41.68 11.891-87.232 17.988-135.987 17.988h-2.37c-48.752 0-94.3-6.097-135.977-17.987 14.321 45.323 70.383 79.231 137.167 79.231zM513.365-67.094c-0.252 0.010-0.938 0.010-1.189 0.010-179.491 0-304.857 128.35-304.857 312.41l-0.333 17.515c-0.225 7.507 0.94 28.589 2.191 48.809 97.851 34.613 138.48 134.077 140.256 138.548 3.155 7.935-0.706 16.919-8.642 20.096-7.966 3.186-16.94-0.695-20.127-8.621-0.395-0.973-38.329-93.12-125.281-121.998-2.503 1.739-19.756 19.404-42.972 13.269 0.016 1.245 0.031 2.48 0.053 3.753-2.289 112.489 30.31 206.454 94.278 271.733 61.719 62.98 151.974 96.275 260.995 96.275l1.139-0.019 0.287-18.16 1.251 0.019-0.287 18.161c109.050 0 199.315-33.295 261.024-96.275 63.968-65.279 96.567-159.245 94.269-272.348 0.017-0.881 0.029-1.743 0.043-2.615-32.737 0-38.354-29.052-38.058-30.251-0.133-0.592-0.257-1.187-0.364-1.79-0.8-4.516-1.706-16.441-2.609-31.41-0.554-0.45-1.066-0.946-1.551-1.471-47.236 46.591-108.854 59.651-168.675 72.325-31.308 6.635-63.676 13.491-94.188 25.057-108.356 41.107-168.149 139.247-168.745 140.235-4.386 7.331-13.884 9.721-21.235 5.344-7.331-4.386-9.73-13.884-5.354-21.225 2.622-4.397 65.631-108.284 184.341-153.316 32.75-12.422 66.307-19.531 98.755-26.398 65.098-13.794 126.586-26.821 168.48-81.201 0.441-0.572 0.922-1.092 1.421-1.585-0.060-2.746-0.060-2.751-0.060-2.751 0-20.273-1.531-39.869-4.485-58.695-53.861-86.052-143.217-142.439-253.916-154.59-8.252 10.887-25.058 18.396-44.581 18.396-27.686 0-50.147-14.985-50.147-33.427 0-18.48 22.461-33.433 50.147-33.433 24.815 0 45.259 12.071 49.234 27.866 35.712 4.103 69.751 12.637 101.665 25.523 45.587 18.411 85.757 45.229 119.391 79.713 5.382 5.519 10.551 11.228 15.549 17.085-40.084-122.080-147.234-200.556-287.118-200.564z"  horiz-adv-x="1024" />

    
    <glyph glyph-name="jinpai" unicode="&#58893;" d="M240.64 245.76L122.88 7.168l185.344 32.768 87.04-166.912 121.856 246.784c-110.592 1.024-207.872 50.176-276.48 125.952zM804.864 243.712c-68.608-75.776-166.912-123.904-276.48-124.928L655.36-128l83.968 167.936 185.344-29.696-119.808 233.472zM804.864 243.712c60.416 67.584 98.304 155.648 98.304 253.952 0 208.896-169.984 378.88-378.88 378.88s-378.88-169.984-378.88-378.88c0-96.256 36.864-184.32 96.256-251.904 67.584-75.776 165.888-124.928 275.456-126.976h11.264c109.568 1.024 207.872 49.152 276.48 124.928zM688.128 513.024v-38.912H548.864v-95.232H583.68c12.288 24.576 22.528 51.2 31.744 78.848l37.888-14.336c-8.192-22.528-17.408-44.032-27.648-65.536h76.8v-39.936H353.28v39.936H430.08c-7.168 21.504-16.384 43.008-27.648 62.464l37.888 14.336c11.264-22.528 21.504-47.104 29.696-76.8h35.84v95.232H367.616v38.912h139.264V558.08H419.84v22.528c-17.408-10.24-35.84-19.456-54.272-27.648L340.992 588.8c69.632 29.696 126.976 68.608 168.96 115.712h33.792c37.888-46.08 93.184-84.992 167.936-115.712l-24.576-35.84c-20.48 8.192-37.888 17.408-53.248 25.6v-20.48h-87.04v-45.056h141.312zM528.384 664.576c-23.552-24.576-52.224-48.128-82.944-68.608h162.816c-31.744 19.456-58.368 43.008-79.872 68.608zM635.904 558.08v20.48c15.36-8.192 32.768-17.408 53.248-25.6l24.576 35.84c-74.752 30.72-131.072 69.632-167.936 115.712H512c-43.008-47.104-99.328-86.016-168.96-115.712l24.576-35.84c18.432 8.192 35.84 17.408 54.272 27.648V558.08h87.04v-45.056H367.616v-38.912h139.264v-95.232H471.04c-8.192 28.672-18.432 54.272-29.696 76.8l-37.888-14.336c11.264-19.456 20.48-39.936 27.648-62.464h-77.824v-39.936h350.208v39.936h-76.8c10.24 21.504 19.456 43.008 27.648 65.536l-37.888 14.336c-9.216-28.672-20.48-54.272-31.744-78.848h-34.816v95.232h139.264v38.912H548.864V558.08h87.04z m-191.488 37.888c31.744 21.504 59.392 44.032 82.944 68.608 22.528-25.6 49.152-48.128 79.872-68.608H444.416z"  horiz-adv-x="1024" />

    
    <glyph glyph-name="qq" unicode="&#58920;" d="M799.187206 814.841016h-574.374412c-79.352775 0-143.65381-64.301035-143.65381-143.65381v-574.494826c0-79.232361 64.301035-143.533396 143.65381-143.533396h574.374412c79.352775 0 143.65381 64.301035 143.65381 143.65381v574.374412c-0.120414 79.352775-64.421449 143.65381-143.65381 143.65381z m-11.198495-614.111007s-3.130762-9.753528-10.957667-9.753527c-3.612418 0-8.188147 2.167451-13.847601 8.188146-18.904986 20.109125-29.501411 43.951082-29.501411 43.951082s-11.559737-51.657573-58.761994-95.247413c38.652869-9.873942 64.903104-29.140169 64.180621-50.333019-1.083725-27.33396-47.081844-47.924741-104.760113-47.924742-3.251176 0-6.502352 0.120414-9.873942 0.120414-48.888053 2.047037-89.828786 18.182502-104.639699 39.014111-3.010348-0.240828-4.094073-0.481656-9.271872-0.481656-5.177799 0-6.14111 0.240828-9.271872 0.481656-14.690499-20.831609-55.751646-37.087488-104.639699-39.014111-3.37159-0.120414-6.622766-0.120414-9.873942-0.120414-57.678269 0-103.676388 20.590781-104.760113 47.924742-0.842897 21.19285 25.527752 40.459078 64.180621 50.333019-47.322672 43.58984-58.761994 95.247413-58.761994 95.247413s-10.476011-23.721543-29.501411-43.951082c-5.779868-6.020696-10.235183-8.188147-13.847601-8.188146-7.826905 0-10.957667 9.753528-10.957667 9.753527C196.876764 303.683913 273.339605 391.465663 273.339605 391.465663c-0.963311 1.685795-0.963311 3.853246-0.963311 3.853246l17.460018 63.939793c2.889934 3.492004 6.984008 3.732832 6.984008 3.732831-8.308561 134.020696 51.055503 198.923801 109.215428 230.351835 32.511759 17.580433 68.395108 26.370649 104.398871 26.370649 35.883349 0 71.887112-8.790216 104.398871-26.370649 58.159925-31.548448 117.403575-96.451552 109.215428-230.351835 0 0 4.094073-0.361242 6.984008-3.732831l17.460018-63.939793s-0.120414-2.167451-0.963311-3.853246c0 0.120414 76.462841-87.661336 40.459078-190.735654z"  horiz-adv-x="1024" />

    
    <glyph glyph-name="gerenzhongxinxuanzhong" unicode="&#58888;" d="M509.2 737.8c-108.8 0-197.2-88.5-197.2-197.2 0-77.6 45-144.8 110.3-177-45.7-14-87.5-39-122.3-73.7-55.8-56-103-146.7-103-225.7 0-9.1 7.4-16.4 16.4-16.4 9.1 0 16.4 7.4 16.4 16.4 0 70.2 43.8 152.7 93.5 202.4 47.9 47.9 111 75 178.4 76.9 2.5-0.1 5-0.2 7.5-0.2 108.8 0 197.2 88.5 197.2 197.2 0.1 108.8-88.4 197.3-197.2 197.3z m2.8-361.6c-0.9 0.2-1.8 0.2-2.8 0.2-2.5 0-5 0-7.5-0.1-87.2 3.9-156.9 76.1-156.9 164.2 0 90.6 73.7 164.4 164.4 164.4 90.6 0 164.4-73.7 164.4-164.4 0-89.7-72.2-162.8-161.6-164.3zM809.1 30.2H808c-9.6 0.6-17 8.9-16.4 18.5 8 131.6-102.6 226.7-103.8 227.7-7.4 6.2-8.3 17.3-2.1 24.7 6.2 7.4 17.3 8.3 24.7 2.1 1.3-1.1 31.9-27.1 61.5-71.5 39.5-59.2 58.4-123.2 54.6-185-0.5-9.3-8.2-16.5-17.4-16.5z"  horiz-adv-x="1024" />

    
    <glyph glyph-name="xin" unicode="&#58883;" d="M64 832v-896h896V832H64z m495.25-128.375c103.5 1 199 11.25 286.5 30.75l19.5-57.75c-99-13-183.25-21.5-252.75-25.5v-174.75h273.75v-51H779v-393h-55.5v393h-111v-36.75c0-153.5-36.75-273-110.25-358.5-12 15.5-25.25 31.5-39.75 48 64.5 70.5 96.75 174.75 96.75 312.75v312.75zM159.5 366.875h153v71.25h54v-71.25h147v-48h-147v-195.75c0-53-25.5-79.5-76.5-79.5-21.5 0-45.75 0.25-72.75 0.75-2 16.5-4.75 35.5-8.25 57 29-3 51.75-4.5 68.25-4.5 23.5 0 35.25 12.75 35.25 38.25v183.75h-153v48z m-21 140.25h120.75c-21.25 33.75-41.25 62.75-60 87l40.5 28.5c16.5-20 37.75-48.25 63.75-84.75l-42.375-30.75h99c27.25 39.25 52.375 78 75.375 116.25l53.25-30c-24.25-31.25-47.375-60-69.375-86.25H533v-48H138.5v48z m24 174h162c-10.75 20.5-23 42.75-36.75 66.75l48 22.5c15.5-25.5 30-51.25 43.5-77.25l-25.125-12H513.5v-48h-351v48z m54.75-396l51-24c-27-56.5-53.75-107.5-80.25-153-14.5 9-31 18-49.5 27 24.5 38 50.75 88 78.75 150z m216-3.75c28-38 52.5-73 73.5-105l-48-33c-22 38.5-45.25 74.75-69.75 108.75l44.25 29.25z"  horiz-adv-x="1024" />

    
    <glyph glyph-name="pinpaibiaoshi-aliwangwang" unicode="&#59175;" d="M825.536 611.872c-78.336 61.504-179.072 86.72-274.752 110.944-76.288 19.136-104.8 23.168-154.656 53.44-36.64 23.168-118.048 63.52-125.152 54.432-8.16-8.064 17.28-35.296 27.456-68.576 15.264-47.36 3.072-85.696-35.616-114.944-89.536-67.552-206.56-185.536-198.4-348.896 11.2-222.848 216.736-377.12 468.064-360.96 252.352 16.128 422.304 177.44 427.392 400.32 3.04 107.872-44.8 201.664-134.336 274.24z m-297.12-308.544l38.656 40.32 41.728 42.368c4.064 3.008 3.04 5.024-2.048 6.048-3.04 0-27.456 5.024-51.872 10.08l-47.84 10.08c-1.024 55.456 15.264 90.752 42.752 94.784 35.616 4.032 72.224-42.336 85.44-127.04 11.2-71.616-13.216-133.12-46.784-136.128-23.392-3.04-44.8 20.16-60.032 59.488z m315.456-13.12c-21.376-5.024-38.688 22.208-50.88 62.528 13.216 12.096 24.416 23.2 35.616 32.256 19.328 16.16 35.616 32.288 38.656 35.296 3.04 3.04 2.048 5.056-2.048 6.08-3.04 0-23.392 3.008-44.768 7.04-12.192 3.008-26.464 5.024-41.728 8.064 0 48.384 13.248 93.76 41.728 98.816 31.552 6.08 59.04-53.44 67.168-120 8.128-80.64-16.288-123.008-43.744-130.08z"  horiz-adv-x="1024" />

    
    <glyph glyph-name="gouwuche3" unicode="&#58889;" d="M357.44 129.60000000000002q18.24 0 34.56-6.72t28.8-18.72 19.2-28.32 6.72-34.56-6.72-34.56-19.2-28.32-28.8-19.2-34.56-7.2q-19.2 0-35.04 7.2t-28.32 19.2-19.2 28.32-6.72 34.56 6.72 34.56 19.2 28.32 28.32 18.72 35.04 6.72zM756.8 127.67999999999995q18.24 0 35.04-6.72t28.8-18.72 19.2-28.32 7.2-34.56-7.2-34.56-19.2-28.32-28.8-19.2-35.04-7.2-34.56 7.2-28.32 19.2-19.2 28.32-7.2 34.56 7.2 34.56 19.2 28.32 28.32 18.72 34.56 6.72zM918.08 672.96q26.88 0 41.76-7.2t21.12-17.76 5.76-22.56-3.36-20.64-12-35.52-20.64-59.04-22.56-63.84-16.8-49.92q-12.48-38.4-31.68-53.28t-47.04-14.88l-32.64 0-62.4 0-81.6 0-89.28 0-238.08 0 14.4-86.4 483.84 0q46.08 0 46.08-39.36 0-19.2-9.12-33.12t-36-13.92l-46.08 0-89.28 0-110.4 0-112.32 0-92.16 0-52.8 0q-19.2 0-32.16 8.64t-21.6 22.56-13.92 30.24-8.16 30.72q-0.96 5.76-5.28 27.84t-10.56 55.2-13.92 73.92-15.36 82.08q-18.24 96.96-41.28 216l-72 0q-14.4 0-24 7.2t-15.84 17.28-8.64 21.6-2.4 21.12q0 19.2 12.96 31.68t35.04 12.48l21.12 0 19.2 0 24 0 32.64 0q19.2 0 30.72-5.76t18.24-14.4 9.6-18.24 4.8-16.32q1.92-7.68 3.84-21.6t3.84-28.32q2.88-17.28 5.76-36.48l656.64 0z"  horiz-adv-x="1024" />

    
    <glyph glyph-name="weibo2" unicode="&#58884;" d="M511.896576 896c-282.712064 0-511.896576-229.184512-511.896576-511.899648 0-282.708992 229.184512-511.893504 511.896576-511.893504s511.893504 229.184512 511.893504 511.893504C1023.79008 666.815488 794.60864 896 511.896576 896zM464.433152 128.95846400000005c-130.83136 0-264.563712 63.404032-264.563712 167.69024 0 54.520832 34.541568 117.568512 94.0288 177.068032 79.430656 79.409152 172.059648 115.581952 206.896128 80.723968 15.371264-15.348736 16.859136-41.947136 6.979584-73.693184-5.149696-15.992832 15.009792-7.13728 15.009792-7.172096 64.202752 26.88 120.215552 28.464128 140.68736-0.78848 10.925056-15.588352 9.879552-37.446656-0.18944-62.778368-4.657152-11.669504 1.432576-13.477888 10.313728-16.144384 36.175872-11.214848 76.438528-38.340608 76.438528-86.140928C750.032896 228.60799999999995 635.94496 128.95846400000005 464.433152 128.95846400000005zM701.2864 460.551168c4.231168 13.072384 1.580032 27.972608-8.28416 38.90688-9.854976 10.912768-24.419328 15.053824-37.851136 12.214272l0 0.023552c-11.203584-2.438144-22.247424 4.753408-24.649728 15.946752-2.408448 11.240448 4.749312 22.293504 15.97952 24.686592 27.476992 5.84192 57.244672-2.65216 77.402112-25.01632 20.200448-22.361088 25.602048-52.822016 16.96768-79.543296-3.524608-10.940416-15.244288-16.896-26.169344-13.39904-10.921984 3.535872-16.894976 15.269888-13.374464 26.180608L701.2864 460.551168zM822.412288 421.435392c-0.007168-0.021504-0.007168-0.069632-0.007168-0.093184-4.110336-12.674048-17.73056-19.61472-30.399488-15.512576-12.719104 4.10624-19.668992 17.696768-15.563776 30.401536l-0.007168 0.008192c12.599296 39.001088 4.609024 83.49184-24.807424 116.109312-29.443072 32.620544-72.856576 45.080576-112.9728 36.56192-13.048832-2.782208-25.880576 5.547008-28.662784 18.582528-2.793472 13.024256 5.52448 25.86112 18.573312 28.653568l0.023552 0c56.388608 11.988992 117.481472-5.516288 158.901248-51.437568C828.920832 538.835968 840.088576 476.296192 822.412288 421.435392zM640.536576 317.687808c-6.767616 68.514816-96.889856 115.705856-201.298944 105.382912-104.38656-10.322944-183.547904-74.238976-176.766976-142.767104 6.781952-68.545536 96.900096-115.736576 201.29792-105.434112C568.179712 185.19859199999996 647.307264 249.120768 640.536576 317.687808zM530.835456 261.43027199999995c-21.305344-48.190464-82.586624-73.882624-134.575104-57.115648-50.193408 16.19968-71.442432 65.757184-49.466368 110.401536 21.577728 43.771904 77.727744 68.530176 127.40608 55.606272C525.613056 357.03398400000003 551.84896 308.534272 530.835456 261.43027199999995zM424.604672 298.141696c-16.164864 6.776832-37.061632-0.191488-47.03744-15.834112-10.098688-15.710208-5.36064-34.419712 10.691584-41.729024 16.285696-7.436288 37.90848-0.376832 48.008192 15.73376C446.1824 272.581632 440.961024 291.170304 424.604672 298.141696zM464.448512 314.65984000000003c-6.203392 2.461696-13.959168-0.518144-17.596416-6.62016-3.533824-6.132736-1.584128-13.11744 4.632576-15.675392 6.324224-2.603008 14.395392 0.402432 18.046976 6.641664C473.01632 305.293312 470.751232 312.354816 464.448512 314.65984000000003z"  horiz-adv-x="1024" />

    
    <glyph glyph-name="qianjin" unicode="&#58948;" d="M299.922204-100.807111l483.555556 483.555555a82.773333 82.773333 0 0 1 0 28.444445l-483.555556 483.555555c-3.726222 1.621333-14.222222 1.706667-28.444444 0l-56.888889-56.888888c-1.621333-14.848-1.706667-25.6 0-28.444445l398.222222-398.222222c5.688889-8.817778 5.831111-19.569778 0-28.444445l-398.222222-398.222222c-1.592889-2.787556-1.763556-13.482667 0-28.444444l56.888889-56.888889c14.051556-1.621333 24.689778-1.706667 28.444444 0z"  horiz-adv-x="1024" />

    
    <glyph glyph-name="fenyeshangyiye" unicode="&#58892;" d="M201.81745442 752.2838737c0 4.74749999 2.51551758 9.35191406 6.96243164 11.8125 4.44867188 2.46058594 9.68493164 2.14918945 13.70698243-0.37441406L815.38436849 392.03637369c3.80522462-2.38412109 6.32786133-6.61860352 6.32786132-11.43808593s-2.52536134-9.05396484-6.32698242-11.43808593L222.48774739-2.526350910000019c-4.02301758-2.52272461-9.25831055-2.83412109-13.70698242-0.37441406-4.44691406 2.46146484-6.96243165 7.065-6.96243164 11.8125L201.81833333 752.28386667 201.81745442 752.2838737z"  horiz-adv-x="1024" />

    
    <glyph glyph-name="suo" unicode="&#58969;" d="M803.163 488.023h-64.259V637.542c0 125.229-101.721 227.06-226.875 227.06-125.157 0-226.993-101.831-226.993-227.06v-149.519h-64.204c-30.957 0-56.047-25.104-56.047-56.084v-409.385c0-31.028 25.09-56.134 56.047-56.134h582.387c30.964 0 55.997 25.105 55.997 56.134V431.939c-0.004 30.985-25.084 56.084-56.053 56.084zM543.505 216.586v-89.398c0-3.997-3.302-7.356-7.36-7.356h-48.178c-4.106 0-7.411 3.365-7.411 7.356v89.398c-22.637 11.576-38.318 34.795-38.318 62.014 0 38.505 31.249 69.824 69.736 69.824 38.543 0 69.795-31.319 69.795-69.824 0.052-27.219-15.627-50.438-38.264-62.014zM651.84 488.023H372.219v145.82c0 77.129 62.775 139.941 139.861 139.941 77.094 0 139.755-62.813 139.755-139.941l0.005-145.82z m0 0M803.163 488.023h-64.259V637.542c0 125.229-101.721 227.06-226.875 227.06-125.157 0-226.993-101.831-226.993-227.06v-149.519h-64.204c-30.957 0-56.047-25.104-56.047-56.084v-409.385c0-31.028 25.09-56.134 56.047-56.134h582.387c30.964 0 55.997 25.105 55.997 56.134V431.939c-0.004 30.985-25.084 56.084-56.053 56.084zM543.505 216.586v-89.398c0-3.997-3.302-7.356-7.36-7.356h-48.178c-4.106 0-7.411 3.365-7.411 7.356v89.398c-22.637 11.576-38.318 34.795-38.318 62.014 0 38.505 31.249 69.824 69.736 69.824 38.543 0 69.795-31.319 69.795-69.824 0.052-27.219-15.627-50.438-38.264-62.014zM651.84 488.023H372.219v145.82c0 77.129 62.775 139.941 139.861 139.941 77.094 0 139.755-62.813 139.755-139.941l0.005-145.82z m0 0"  horiz-adv-x="1024" />

    
    <glyph glyph-name="gouwuche" unicode="&#58909;" d="M347.136 112.63999999999999q19.456 0 36.864-7.168t30.72-19.968 20.48-30.208 7.168-36.864-7.168-36.864-20.48-30.208-30.72-20.48-36.864-7.68q-20.48 0-37.376 7.68t-30.208 20.48-20.48 30.208-7.168 36.864 7.168 36.864 20.48 30.208 30.208 19.968 37.376 7.168zM773.12 110.59199999999998q19.456 0 37.376-7.168t30.72-19.968 20.48-30.208 7.68-36.864-7.68-36.864-20.48-30.208-30.72-20.48-37.376-7.68-36.864 7.68-30.208 20.48-20.48 30.208-7.68 36.864 7.68 36.864 20.48 30.208 30.208 19.968 36.864 7.168zM945.152 692.2239999999999q28.672 0 44.544-7.68t22.528-18.944 6.144-24.064-3.584-22.016-12.8-37.888-22.016-62.976-24.064-68.096-17.92-53.248q-13.312-40.96-33.792-56.832t-50.176-15.872l-34.816 0-66.56 0-87.04 0-95.232 0-253.952 0 15.36-92.16 516.096 0q49.152 0 49.152-41.984 0-20.48-9.728-35.328t-38.4-14.848l-49.152 0-95.232 0-117.76 0-119.808 0-98.304 0-56.32 0q-20.48 0-34.304 9.216t-23.04 24.064-14.848 32.256-8.704 32.768q-1.024 6.144-5.632 29.696t-11.264 58.88-14.848 78.848-16.384 87.552q-19.456 103.424-44.032 230.4l-76.8 0q-15.36 0-25.6 7.68t-16.896 18.432-9.216 23.04-2.56 22.528q0 20.48 13.824 33.792t37.376 13.312l22.528 0 20.48 0 25.6 0 34.816 0q20.48 0 32.768-6.144t19.456-15.36 10.24-19.456 5.12-17.408q2.048-8.192 4.096-23.04t4.096-30.208q3.072-18.432 6.144-38.912l700.416 0z"  horiz-adv-x="1024" />

    
    <glyph glyph-name="saoyisaoerweimasaomasaomiao" unicode="&#58904;" d="M836.861 709.131c0 23.815-22.973 47.164-47.142 47.164H614.601V814.7860000000001h152.072c76.049-0.07 129.052-42.908 128.68-116.98v-163.773h-58.491V709.131z m-655.089 0.371v-175.469h-58.489V697.806c0 74.083 42.871 116.98 116.98 116.98h163.773v-58.492H228.564c-23.746 0.001-46.792-23.639-46.792-46.792z m0-561.726c0-22.542 22.939-46.571 47.925-46.571h174.339v-58.488H228.564c-74.094 0-105.28 42.886-105.28 116.98V323.46900000000005h58.489v-175.693z m655.089 0.56V323.46900000000005h58.491v-163.772c0.07-74.094-42.558-116.932-116.98-116.98H614.601v58.488h174.838c24.504 0 47.422 23.492 47.422 47.131z m163.772 280.391c0-19.396-15.724-35.119-35.119-35.119H53.119C33.723 393.608 18 409.332 18 428.727c0 19.396 15.724 35.119 35.119 35.119h912.395c19.395 0 35.119-15.723 35.119-35.119z"  horiz-adv-x="1024" />

    
    <glyph glyph-name="gouwuche1" unicode="&#58880;" d="M347.136 112.63999999999999q19.456 0 36.864-7.168t30.72-19.968 20.48-30.208 7.168-36.864-7.168-36.864-20.48-30.208-30.72-20.48-36.864-7.68q-20.48 0-37.376 7.68t-30.208 20.48-20.48 30.208-7.168 36.864 7.168 36.864 20.48 30.208 30.208 19.968 37.376 7.168zM773.12 110.59199999999998q19.456 0 37.376-7.168t30.72-19.968 20.48-30.208 7.68-36.864-7.68-36.864-20.48-30.208-30.72-20.48-37.376-7.68-36.864 7.68-30.208 20.48-20.48 30.208-7.68 36.864 7.68 36.864 20.48 30.208 30.208 19.968 36.864 7.168zM945.152 692.2239999999999q28.672 0 44.544-7.68t22.528-18.944 6.144-24.064-3.584-22.016-12.8-37.888-22.016-62.976-24.064-68.096-17.92-53.248q-13.312-40.96-33.792-56.832t-50.176-15.872l-34.816 0-66.56 0-87.04 0-95.232 0-253.952 0 15.36-92.16 516.096 0q49.152 0 49.152-41.984 0-20.48-9.728-35.328t-38.4-14.848l-49.152 0-95.232 0-117.76 0-119.808 0-98.304 0-56.32 0q-20.48 0-34.304 9.216t-23.04 24.064-14.848 32.256-8.704 32.768q-1.024 6.144-5.632 29.696t-11.264 58.88-14.848 78.848-16.384 87.552q-19.456 103.424-44.032 230.4l-76.8 0q-15.36 0-25.6 7.68t-16.896 18.432-9.216 23.04-2.56 22.528q0 20.48 13.824 33.792t37.376 13.312l22.528 0 20.48 0 25.6 0 34.816 0q20.48 0 32.768-6.144t19.456-15.36 10.24-19.456 5.12-17.408q2.048-8.192 4.096-23.04t4.096-30.208q3.072-18.432 6.144-38.912l700.416 0z"  horiz-adv-x="1024" />

    
    <glyph glyph-name="huidaodingbu" unicode="&#58891;" d="M819.6608 171.0592c15.8976-17.3568 43.1872-17.3568 59.6224 0 16.7424 17.3312 16.7424 46.2336 0 64.1536L542.1056 596.3008c-16.7168 18.2016-43.7248 18.2016-60.16 0L144.512 235.1872c-16.4864-17.92-16.4864-46.8224 0-64.1536a40.96 40.96 0 0 1 59.904 0l307.2256 329.6 308.0192-329.5744z"  horiz-adv-x="1024" />

    
    <glyph glyph-name="weixin1" unicode="&#58954;" d="M321.9 565c-18.5 1.7-35.1-11.6-37.5-30 2.4-18.5 18.9-31.8 37.5-30.2 16.6 0 30.1 13.5 30.1 30.1S338.5 565 321.9 565zM496 504.8h1.9c16.6 0.5 29.7 14.4 29.2 31.1-0.5 16.6-14.4 29.7-31.1 29.2h0.1c-18.5 1.7-35.1-11.6-37.4-30 2.3-18.6 18.8-31.9 37.3-30.3zM590.1 377.7h-1.7c-13.3-0.5-23.7-11.6-23.2-24.9 0.5-13.3 11.6-23.7 24.9-23.2 15.2-1.8 29.1 8.9 31.2 24.1-2.2 15.1-16 25.8-31.2 24zM780.7 831.8H243.3c-98.9 0-179.1-80.2-179.1-179.1v-537.3c0-98.9 80.2-179.1 179.1-179.1h537.3c98.9 0 179.1 80.2 179.1 179.1V652.7c0.1 98.9-80.1 179.1-179 179.1z m-378-574.1c-29.4 1.1-58.6 5.1-87.2 12.1l-87-42.2 24.9 72.4c-62.3 42.2-99.6 96.5-99.6 162.6 0 114.6 112.1 204.8 248.9 204.8 122.4 0 229.7-72.1 251.2-169.1-8 0.9-16 1.4-24 1.4-118.2 0-211.6-85.4-211.6-190.6 0.1-17.1 2.7-34.1 7.7-50.5-7.7-0.5-15.4-0.9-23.3-0.9zM783 160.8l20.9-60.3-70.4 36.3c-24.3-6.9-49.4-11-74.7-12.1-118.5 0-211.8 78.5-211.8 174.7s93.3 174.8 211.8 174.8c111.9 0 211.5-78.5 211.5-174.8-0.1-54.3-37.3-102.4-87.3-138.6zM727 377.7c-13.3 0-24.1-10.8-24.1-24.1s10.8-24.1 24.1-24.1c15.2-1.8 29 9 31.1 24.1-2.1 15.2-15.9 25.8-31.1 24.1z"  horiz-adv-x="1024" />

    
    <glyph glyph-name="soushuo" unicode="&#59109;" d="M222.6944 673.2032A323.1488 323.1488 0 0 1 133.6832 384c19.2512 87.3728 64.512 172.7488 135.0144 243.3024C339.2512 697.8815999999999 424.6272 743.1168 512 762.3679999999999c-101.632 19.1488-210.688-10.5216-289.3056-89.1648zM989.44 73.88160000000005l-121.7024 121.7024a118.016 118.016 0 0 1-92.8 34.1248c114.4576 165.5552 97.92 394.3936-49.4848 541.824-165.9392 165.9904-435.0464 165.9904-601.0368 0-165.9392-165.9904-165.9392-435.1232 0-601.1136 147.4048-147.4304 376.064-163.84 541.7216-49.3824-2.56-33.28 8.8576-67.5328 34.1248-92.8l121.7024-121.728c46.08-45.9776 121.3696-45.9776 167.3472 0 46.208 45.9776 46.208 121.2928 0.128 167.3728zM676.096 219.904c-138.6752-138.6752-363.392-138.6752-502.016 0-138.6752 138.6752-138.6752 363.4432 0 502.1184 138.624 138.6752 363.3408 138.6752 502.016 0 138.6496-138.5728 138.6496-363.4432 0-502.1184z"  horiz-adv-x="1024" />

    
    <glyph glyph-name="kouhong" unicode="&#58882;" d="M492 309v90h-19V589l-90 130-90-130v-190h-21v-90h-20v-340h260V309z m-81.36-40H472v-167.36zM383 648.73l38.11-55L383 555.57l-38.11 38.11zM333 549l50-50 50 50v-150H333z m-21-190h140v-50H312z m-20-90h76l95.33-260H292zM722 309V584h15V799h-73.28L607 742.28V584h15v-275h-50v-340h200V309z m10-40v-127.38L698 269h34z m-85 456.72L680.28 759H697v-135h-50zM662 584h20v-275h-20z m-50-315h44.63L726 9H612z"  horiz-adv-x="1024" />

    
    <glyph glyph-name="fenyeshangyiye1" unicode="&#58895;" d="M822.18254558 15.716126300000042c0-4.74749999-2.51551758-9.35191406-6.96243164-11.8125-4.44867188-2.46058594-9.68493164-2.14918945-13.70698243 0.37441406L208.61563151 375.96362631c-3.80522462 2.38412109-6.32786133 6.61860352-6.32786132 11.43808593s2.52536134 9.05396484 6.32698242 11.43808593L801.51225261 770.52635091c4.02301758 2.52272461 9.25831055 2.83412109 13.70698242 0.37441406 4.44691406-2.46146484 6.96243165-7.065 6.96243164-11.8125L822.18166667 15.716133330000048 822.18254558 15.716126300000042z"  horiz-adv-x="1024" />

    
    <glyph glyph-name="shuxie" unicode="&#58894;" d="M749.381818-27.927273H204.8c-74.472727 0-137.309091 62.836364-137.309091 134.981818V646.981818c0 74.472727 60.509091 134.981818 137.309091 134.981818h337.454545c18.618182 0 34.909091-16.290909 34.909091-34.909091s-16.290909-34.909091-34.909091-34.90909H204.8c-37.236364 0-69.818182-30.254545-69.818182-67.49091V104.727273c0-34.909091 32.581818-67.490909 69.818182-67.490909h542.254545c37.236364 0 69.818182 30.254545 69.818182 67.490909V514.327273c0 18.618182 16.290909 34.909091 34.909091 34.909091s34.909091-16.290909 34.909091-34.909091v-407.272728c-2.327273-74.472727-62.836364-134.981818-137.309091-134.981818zM716.8 114.036364H242.036364c-18.618182 0-34.909091 16.290909-34.909091 34.909091s16.290909 34.909091 34.909091 34.90909h474.763636c18.618182 0 34.909091-16.290909 34.909091-34.90909s-16.290909-34.909091-34.909091-34.909091zM781.963636 570.181818l-162.909091 160.581818 90.763637 90.763637c44.218182 44.218182 118.690909 44.218182 162.909091 0 23.272727-20.945455 34.909091-48.872727 34.909091-79.127273 0-30.254545-11.636364-58.181818-34.909091-81.454545L781.963636 570.181818z m-65.163636 162.909091l65.163636-65.163636L826.181818 709.818182c6.981818 9.309091 11.636364 18.618182 11.636364 32.581818s-4.654545 23.272727-13.963637 32.581818c-18.618182 18.618182-48.872727 18.618182-67.490909 0L716.8 733.090909zM342.109091 230.4c-18.618182 0-34.909091 6.981818-46.545455 20.945455-16.290909 16.290909-23.272727 41.890909-16.290909 62.836363l23.272728 90.763637c2.327273 6.981818 6.981818 18.618182 16.290909 27.927272L667.927273 779.636364l162.909091-160.581819-351.418182-349.090909c-9.309091-9.309091-18.618182-13.963636-27.927273-16.290909h-2.327273l-90.763636-20.945454c-6.981818-2.327273-11.636364-2.327273-16.290909-2.327273z m23.272727 153.6l-20.945454-86.109091 88.436363 20.945455 302.545455 297.890909-65.163637 65.163636L365.381818 384zM393.309091 437.527273l93.090909-90.763637-41.890909-39.563636-93.090909 90.763636z"  horiz-adv-x="1024" />

    
    <glyph glyph-name="dingwei" unicode="&#58907;" d="M499.712-66.56c-18.432 0-34.816 6.144-47.104 20.48L241.664 166.912c-110.592 81.92-165.888 206.848-149.504 333.824 20.48 172.032 172.032 311.296 360.448 329.728 124.928 12.288 245.76-26.624 333.824-106.496 77.824-71.68 120.832-165.888 120.832-266.24 0-114.688-55.296-221.184-153.6-292.864L546.816-46.08c-12.288-14.336-30.72-20.48-47.104-20.48z m-2.048 819.2c-12.288 0-24.576 0-36.864-2.048-149.504-14.336-272.384-122.88-288.768-258.048-12.288-100.352 32.768-196.608 120.832-260.096l6.144-4.096 200.704-204.8 204.8 210.944c77.824 55.296 122.88 139.264 122.88 227.328 0 77.824-32.768 151.552-94.208 204.8C669.696 721.92 585.728 752.64 497.664 752.64zM499.712 336.896c-88.064 0-159.744 67.584-159.744 149.504s71.68 149.504 159.744 149.504 159.744-67.584 159.744-149.504-71.68-149.504-159.744-149.504z m0 215.04c-43.008 0-77.824-30.72-77.824-67.584s34.816-67.584 77.824-67.584 77.824 30.72 77.824 67.584-34.816 67.584-77.824 67.584z"  horiz-adv-x="1024" />

    
    <glyph glyph-name="xinfeng" unicode="&#58908;" d="M522.24 312.32c-43.008 0-83.968 16.384-116.736 47.104L116.736 650.24c-16.384 16.384-16.384 14.336 0 30.72s40.96 43.008 57.344 26.624l288.768-288.768c30.72-30.72 83.968-30.72 116.736 0L870.4 707.584c16.384 16.384 40.96-10.24 57.344-26.624s16.384-14.336 0-30.72L638.976 361.472c-32.768-30.72-73.728-49.152-116.736-49.152zM839.68-56.32H184.32c-90.112 0-163.84 73.728-163.84 163.84v450.56c0 90.112 73.728 163.84 163.84 163.84h655.36c90.112 0 163.84-73.728 163.84-163.84v-450.56c0-90.112-73.728-163.84-163.84-163.84z m-655.36 696.32c-45.056 0-81.92-36.864-81.92-81.92v-450.56c0-45.056 36.864-81.92 81.92-81.92h655.36c45.056 0 81.92 36.864 81.92 81.92v450.56c0 45.056-36.864 81.92-81.92 81.92H184.32z"  horiz-adv-x="1024" />

    
    <glyph glyph-name="gouwuche2" unicode="&#58881;" d="M347.136 112.63999999999999q19.456 0 36.864-7.168t30.72-19.968 20.48-30.208 7.168-36.864-7.168-36.864-20.48-30.208-30.72-20.48-36.864-7.68q-20.48 0-37.376 7.68t-30.208 20.48-20.48 30.208-7.168 36.864 7.168 36.864 20.48 30.208 30.208 19.968 37.376 7.168zM773.12 110.59199999999998q19.456 0 37.376-7.168t30.72-19.968 20.48-30.208 7.68-36.864-7.68-36.864-20.48-30.208-30.72-20.48-37.376-7.68-36.864 7.68-30.208 20.48-20.48 30.208-7.68 36.864 7.68 36.864 20.48 30.208 30.208 19.968 36.864 7.168zM945.152 692.2239999999999q28.672 0 44.544-7.68t22.528-18.944 6.144-24.064-3.584-22.016-12.8-37.888-22.016-62.976-24.064-68.096-17.92-53.248q-13.312-40.96-33.792-56.832t-50.176-15.872l-34.816 0-66.56 0-87.04 0-95.232 0-253.952 0 15.36-92.16 516.096 0q49.152 0 49.152-41.984 0-20.48-9.728-35.328t-38.4-14.848l-49.152 0-95.232 0-117.76 0-119.808 0-98.304 0-56.32 0q-20.48 0-34.304 9.216t-23.04 24.064-14.848 32.256-8.704 32.768q-1.024 6.144-5.632 29.696t-11.264 58.88-14.848 78.848-16.384 87.552q-19.456 103.424-44.032 230.4l-76.8 0q-15.36 0-25.6 7.68t-16.896 18.432-9.216 23.04-2.56 22.528q0 20.48 13.824 33.792t37.376 13.312l22.528 0 20.48 0 25.6 0 34.816 0q20.48 0 32.768-6.144t19.456-15.36 10.24-19.456 5.12-17.408q2.048-8.192 4.096-23.04t4.096-30.208q3.072-18.432 6.144-38.912l700.416 0z"  horiz-adv-x="1024" />

    


  </font>
</defs>
</svg>
